<?xml version="1.0" encoding="utf-8"?>
<!-- Generator: Adobe Illustrator 27.9.0, SVG Export Plug-In . SVG Version: 6.00 Build 0)  -->
<svg version="1.1" id="Layer_1" xmlns="http://www.w3.org/2000/svg" xmlns:xlink="http://www.w3.org/1999/xlink" x="0px" y="0px"
	 viewBox="0 0 512 512" style="enable-background:new 0 0 512 512;" xml:space="preserve">
<path d="M447.6,0H64.4C28.9,0,0,28.9,0,64.4v383.2C0,483.1,28.9,512,64.4,512h383.2c35.5,0,64.4-28.9,64.4-64.4V64.4
	C512,28.9,483.1,0,447.6,0z M484.1,64.4v383.2c0,4.9-1,9.7-2.8,14L275.7,256L481.3,50.4C483.1,54.7,484.1,59.4,484.1,64.4z
	 M447.6,27.9c4.9,0,9.7,1,14,2.8L256,236.3L50.4,30.7c4.3-1.8,9-2.8,14-2.8H447.6z M30.7,461.6c-1.8-4.3-2.8-9-2.8-14V64.4
	c0-4.9,1-9.7,2.8-14L236.3,256L30.7,461.6z M64.4,484.1c-4.9,0-9.7-1-14-2.8L256,275.7l205.6,205.6c-4.3,1.8-9,2.8-14,2.8H64.4z"/>
</svg>
