<svg xmlns="http://www.w3.org/2000/svg" viewBox="0 0 2000 399.54"><g id="Layer_2" data-name="Layer 2"><g id="Layer_1-2" data-name="Layer 1"><path d="M61.93.25C49.51,1.71,36.86,7.62,24.23,17.83L24,18,23.77,18a26.88,26.88,0,0,0-4.68-.27A20.9,20.9,0,0,0,0,39.53,20.89,20.89,0,0,0,21.87,58.62,20.66,20.66,0,0,0,40.7,41.7l0-.19.15-.13c8.06-7.36,16.31-11,25.12-11,1,0,2.06,0,3.1.14,11.81,1.38,24.31,9,38.25,23.19C121,67.73,135,86.59,148.1,104.89L167.25,132c8.08,11.43,16.43,23.25,24.9,34.32,7.48,9.41,17.49,21.29,28.51,29.64,11.71,8.85,23.15,12.31,34.93,10.55l3.78-.67-2.16-2.59c-22.26-23.38-40.24-50-53.37-69.38l-22.42-32.56c-16-23.08-31.06-44.88-46.85-62.23C111,12.67,90.13.25,68.76,0A63.4,63.4,0,0,0,61.93.25Z"/><path d="M41.55,115.08l0,.2a20.76,20.76,0,0,1-19.1,19.12c-.34,0-.68,0-1,0a20.51,20.51,0,0,1-1.76-41H21.3L54.59,59.32A24.66,24.66,0,0,1,73,51.79,23.36,23.36,0,0,1,90.2,59.84l1.13,1.58Z"/><path d="M21.48,167.56h-.43a20.47,20.47,0,0,0,0,40.94,18.82,18.82,0,0,0,2.78-.27l.4-.06a20.25,20.25,0,0,0,17.14-18.69v-.2l84.46-91.4L107.47,75.76Z"/><path d="M329.86,221.15c15.61-1.75,31-10.33,47.21-26.25l.17-.16h2.48a20.31,20.31,0,0,0,18.51-21.83,20.91,20.91,0,0,0-21.85-19.12,20.19,20.19,0,0,0-18.82,19.1v.2l-.13.15c-11.45,13-22.92,18.81-35,17.6-11.8-1.38-24.31-9-38.24-23.19-13.71-14-27.69-32.85-40.75-51.14L224.2,89.3c-8-11.41-16.39-23.2-24.83-34.24-7.48-9.41-17.49-21.29-28.52-29.64-11.7-8.85-23.14-12.31-34.92-10.55l-3.61.42,2.52,2.53c22.27,23.39,40.26,50,53.4,69.4l18.52,26.94c18.76,27.83,34.52,50.07,50.47,68.15,23.52,26.42,44.43,38.84,65.81,39.09A67.09,67.09,0,0,0,329.86,221.15Z"/><path d="M378.08,123.17h1.08a19.91,19.91,0,0,0,19.07-21.55A20.91,20.91,0,0,0,377.4,82.48c-.34,0-.67,0-1,0a20.58,20.58,0,0,0-19.11,19.66v.22L300.77,163l1.09,1.31a23.51,23.51,0,0,0,17.46,8.07h.5a24.34,24.34,0,0,0,17.67-7.54Z"/><path d="M266,126.3l18.62,22.15L379.74,46.86l.2,0A20.31,20.31,0,0,0,398.23,25,20.89,20.89,0,0,0,376.38,5.89a20.52,20.52,0,0,0-19.1,21.57v.24Z"/><path d="M481,184.79l22.35-24.19c14.73,15.51,35.24,24.45,58.12,24.45,28.14,0,40.77-11,40.77-28.14,0-18.67-17.63-23.66-47.87-30.77-33.66-8.15-66.27-19.72-66.27-58.9C488.14,32.26,515,7,562.83,7c31.29,0,55.22,10.25,73.37,28.13L615.42,59.61c-13.94-14.2-31.55-22.88-53.12-22.88-24.46,0-36.55,11.57-36.55,26.83,0,18.4,16.83,22.35,46.54,29.71,35.51,8.94,67.33,20,67.33,60,0,36.29-27.88,61.54-78.37,61.54C526.54,214.77,500.5,204.25,481,184.79Z"/><path d="M777.48,70.66,719.89,221.34c-11,28.93-24.2,41.55-50.23,41.55A60.66,60.66,0,0,1,650.2,260V234.23a52.38,52.38,0,0,0,12.36,1.58c12.62,0,20-4.73,25-20.51L632.32,70.66h37.6l35.5,104.4H706l35.5-104.4Z"/><path d="M825.33,89.59c8.94-13.94,22.61-21.83,41.28-21.83,19.2,0,34.19,8.42,41.55,22.62,10-15.25,25.51-22.62,44.45-22.62,28.92,0,48.12,18.15,48.12,45.5v98.62h-35.5V119c0-13.14-7.63-23.4-23.67-23.4-17.35,0-28.14,12.1-28.14,28.4v87.84h-35.5V119c0-13.14-7.89-23.4-23.4-23.4-17.36,0-28.41,12.1-28.41,28.4v87.84h-35.5V70.66H824l.79,18.93Z"/><path d="M1055.32,193.73h-.52V260h-35.5V70.66h33.39l.79,21h.53c10.78-15,27.09-23.93,45.76-23.93,38.13,0,60.75,31.56,60.75,72.85s-23.67,74.16-61.8,74.16C1080.31,214.77,1065.84,207.14,1055.32,193.73Zm69.17-52.6c0-23.93-10.78-45.49-35.51-45.49-23.4,0-35.23,20.51-35.23,46.29,0,26,12.36,45,35,45C1112.65,186.89,1124.49,166.64,1124.49,141.13Z"/><path d="M1179.08,9.91h35.5V89.85h.53c8.94-13.93,23.66-22.09,42.6-22.09,29.19,0,48.12,19.2,48.12,48.13v96h-35.5v-90.2c0-14.47-8.41-26-25.24-26-18.94,0-30.51,13.41-30.51,31.29v84.95h-35.5Z"/><path d="M1324.75,141.4c0-42.08,25.77-73.64,72.58-73.64,47.08,0,72.58,31.56,72.58,73.64,0,41.81-25.77,73.37-72.58,73.37C1350.26,214.77,1324.75,183.21,1324.75,141.4Zm36,0c0,26,12.1,46,36.55,46s36.56-20,36.56-46c0-26.3-12.1-46.29-36.56-46.29S1360.78,115.1,1360.78,141.4Z"/><path d="M1488.48,70.66h33.4l.78,20h.53c8.68-14.2,23.93-22.88,43.13-22.88,29.72,0,48.91,19.47,48.91,48.66v95.46h-35.5v-90.2c0-14.47-8.68-26-25.24-26-18.94,0-30.51,13.41-30.51,31.29v84.95h-35.5Z"/><path d="M1767.3,70.66l-57.59,150.68c-11,28.93-24.2,41.55-50.23,41.55A60.66,60.66,0,0,1,1640,260V234.23a52.38,52.38,0,0,0,12.36,1.58c12.62,0,20-4.73,25-20.51L1622.14,70.66h37.6l35.51,104.4h.52l35.5-104.4Z"/><path d="M1893.52,162.44h-84.16l-17.61,49.44h-38.14l76-202h45l76,202h-39.45Zm-10.78-30-31-86.79h-.53l-31,86.79Z"/><rect x="1962.66" y="9.91" width="37.34" height="201.97"/><path d="M590,304.87v94.67H568.52V337h-.25l-20.34,62.5H529.69l-20.34-62.25h-.25v62.25h-21V304.87h29.22L539.18,373h.25l21.69-68.17Z"/><path d="M610.19,399.54V304.87h66.2v16.76H631.77v21.82h38.7v16.64h-38.7v22.69h45.48v16.76Z"/><path d="M693,304.87h35.5c34.27,0,48.82,21.94,48.82,47.09,0,27.36-16.64,47.58-48.33,47.58H693Zm33.65,77.91c18.37,0,28.6-10.11,28.6-30.45,0-20.84-11-30.7-29.09-30.7H714.73v61.15Z"/><path d="M794.13,399.54V304.87h21.69v94.67Z"/><path d="M893.74,378.83H856.88l-7,20.71H828l34.52-94.67h26.13l34.64,94.67H900.76Zm-5.55-16.4-12.7-37.84h-.25l-12.82,37.84Z"/></g></g></svg>