<?xml version="1.0" encoding="utf-8"?>
<!-- Generator: Adobe Illustrator 27.9.0, SVG Export Plug-In . SVG Version: 6.00 Build 0)  -->
<svg version="1.1" id="logo" xmlns="http://www.w3.org/2000/svg" xmlns:xlink="http://www.w3.org/1999/xlink" x="0px" y="0px"
	 viewBox="0 0 2000 1112" style="enable-background:new 0 0 2000 1112;" xml:space="preserve">
<path d="M311,1.3c-62.4,7.3-125.9,37-189.4,88.3l-1,0.8l-1.3-0.2c-8.2-1.4-14.9-1.4-23.5-1.4C40.4,92.9-2.6,142.1,0.1,198.5
	c4.1,55.6,53.4,98.7,109.7,95.9c46.3-2.6,86-38.4,94.5-85l0.2-1l0.7-0.7c40.5-36.9,81.9-55,126.2-55c5.1,0,10.3,0.2,15.6,0.7
	c59.3,6.9,122.1,45,192,116.4c68.8,70.2,139,164.9,204.6,256.8L839.9,663c40.6,57.4,82.5,116.8,125,172.3
	c37.6,47.3,87.8,106.9,143.2,148.8c58.8,44.5,116.2,61.8,175.4,53l19-3.3l-10.8-13c-111.8-117.4-202.1-250.9-268-348.4L911,508.8
	c-80.2-115.9-156-225.4-235.3-312.5C557.6,63.6,452.6,1.3,345.3,0C328.8,0,317.3,0.4,311,1.3z"/>
<path d="M208.6,577.9l-0.1,1c-4.2,51.6-44.6,91.9-95.9,96c-1.7,0.1-3.4,0.1-5.1,0.1C53.3,675,6.9,632.9,2.9,579
	c-2.8-56.4,40.3-105.6,95.8-109.7h8.2l167.2-171.4c24.3-25,58-39,92.6-37.9c33.6,0.9,64.3,15.3,86.2,40.4l5.7,7.9L208.6,577.9
	L208.6,577.9z"/>
<path d="M107.9,841.4l-2.1-0.1h0C49,841.3,2.9,887.5,2.9,944.1s46.1,102.8,102.8,102.8c4.7,0,9.2-0.7,14-1.4l2-0.3
	c47.3-7.4,82.7-45.9,86.1-93.8l0.1-1l424.1-458.9l-92.3-111L107.9,841.4z"/>
<path d="M1656.4,1110.5c78.4-8.8,155.7-51.8,237.1-131.8l0.8-0.8h12.5c55.3-4.2,97.1-53.3,92.9-109.6c-4.1-55.7-53.4-98.9-109.7-96
	c-51.9,4.1-91.7,44.4-94.5,95.9l-0.1,1l-0.7,0.8c-57.5,65.5-115.1,94.4-175.8,88.3c-59.3-6.9-122.1-45-192-116.4
	c-68.8-70.3-139-165-204.6-256.8l-96.5-136.6c-40.5-57.3-82.3-116.5-124.7-171.9c-37.6-47.3-87.8-106.9-143.2-148.8
	c-58.8-44.5-116.2-61.8-175.4-53l-18.1,2.1l12.7,12.7C788.9,207,879.3,340.5,945.2,438l93,135.3c94.2,139.7,173.4,251.4,253.5,342.2
	c118.1,132.7,223.1,195.1,330.4,196.3C1639.1,1111.8,1648.1,1111.3,1656.4,1110.5L1656.4,1110.5z"/>
<path d="M1898.5,618.5h5.4c27.7-1.3,52.9-13.2,70.9-33.5c18-20.3,26.9-46.9,24.9-74.7c-4-54-50.3-96.1-104.6-96.1
	c-1.7,0-3.4,0-5.1,0.1c-52.8,4.1-93.2,45.6-95.9,98.7l-0.1,1.1l-283.7,304.6l5.5,6.6c22.2,25.4,53.3,39.8,87.7,40.5
	c0.8,0,1.7,0,2.5,0c33.7,0,65.9-13.7,88.7-37.9L1898.5,618.5L1898.5,618.5z"/>
<path d="M1335.7,634.2l93.5,111.2l477.7-510.1l1-0.1c55.6-5.6,95.9-53.7,91.8-109.7c-4.1-55.7-53.3-99-109.7-96
	c-56.5,4.1-98.7,51.7-95.9,108.3l0.1,1.2L1335.7,634.2L1335.7,634.2z"/>
</svg>
